<svg width="420" height="270" viewBox="0 0 420 270" xmlns="http://www.w3.org/2000/svg">
  <defs>
    <linearGradient id="sky" y1="0" y2="1">
      <stop offset="0" stop-color="#24325a"/>
      <stop offset=".45" stop-color="#ef7d3b"/>
      <stop offset="1" stop-color="#f0c05a"/>
    </linearGradient>
  </defs>
  <rect width="420" height="270" fill="url(#sky)"/>
  <circle cx="188" cy="54" r="2" fill="#fff"/><circle cx="214" cy="38" r="2" fill="#fff"/><circle cx="245" cy="70" r="1.5" fill="#fff"/><circle cx="132" cy="75" r="1.5" fill="#fff"/>
  <path d="M142 245 210 42l70 203z" fill="#1f6ca3"/>
  <path d="M156 218h108M166 188h88M176 158h68M186 128h48M196 98h28" stroke="#f1bb4a" stroke-width="9"/>
  <g fill="#dc4e3b"><rect x="170" y="203" width="18" height="18"/><rect x="226" y="203" width="18" height="18"/><rect x="188" y="172" width="16" height="16"/><rect x="218" y="172" width="16" height="16"/></g>
  <path d="M0 220c46-30 84-32 120-6v56H0z" fill="#0a4b4f"/>
  <path d="M338 56c34 50 50 118 48 214h34V40z" fill="#102918"/>
  <rect width="420" height="270" fill="#000" opacity=".08"/>
</svg>
