<svg width="520" height="760" viewBox="0 0 520 760" xmlns="http://www.w3.org/2000/svg">
  <defs>
    <linearGradient id="blue" x1="0" y1="0" x2="1" y2="1">
      <stop offset="0" stop-color="#152235"/>
      <stop offset=".45" stop-color="#1e5f9f"/>
      <stop offset="1" stop-color="#07101a"/>
    </linearGradient>
    <linearGradient id="light" x1="0" x2="1">
      <stop offset="0" stop-color="#e8f5ff"/>
      <stop offset=".55" stop-color="#58a7e6"/>
      <stop offset="1" stop-color="#07284f"/>
    </linearGradient>
  </defs>
  <rect width="520" height="760" fill="url(#blue)"/>
  <g stroke="#84b7df" stroke-width="12" opacity=".62">
    <path d="M40 28h440M38 128h448M46 230h424M38 332h448M50 438h410"/>
    <path d="M110 0v760M245 0v760M388 0v760"/>
  </g>
  <path d="M165 160c38-48 118-48 154 4 30 44 28 108 10 152H154c-18-48-20-110 11-156z" fill="#0c1118"/>
  <circle cx="239" cy="150" r="52" fill="#d4a274"/>
  <path d="M170 128c32-70 120-78 164-15l-24 54c-47-35-93-47-140-39z" fill="#f4f2ea"/>
  <circle cx="292" cy="115" r="14" fill="#17253f"/>
  <path d="M132 278h228l54 256H92z" fill="#0e1721"/>
  <path d="M132 328h226" stroke="#1e5f9f" stroke-width="12"/>
  <path d="M88 426h355" stroke="#0b1622" stroke-width="24"/>
  <path d="M74 246c85 58 206 84 364 78" stroke="#d4a274" stroke-width="34" stroke-linecap="round" fill="none"/>
  <path d="M0 510h520v250H0z" fill="#0b1522" opacity=".56"/>
  <path d="M250 0c-20 206-26 410 2 760" stroke="url(#light)" stroke-width="16" opacity=".65"/>
  <rect width="520" height="760" fill="#000000" opacity=".08"/>
</svg>
