<svg width="900" height="460" viewBox="0 0 900 460" xmlns="http://www.w3.org/2000/svg">
  <defs>
    <linearGradient id="cab" x1="0" x2="1" y1="0" y2="1">
      <stop offset="0" stop-color="#3a2416"/>
      <stop offset=".42" stop-color="#b7803d"/>
      <stop offset="1" stop-color="#8f8f88"/>
    </linearGradient>
    <linearGradient id="steel" x1="0" x2="1">
      <stop offset="0" stop-color="#e3e3dd"/>
      <stop offset=".45" stop-color="#777873"/>
      <stop offset="1" stop-color="#f9f9f3"/>
    </linearGradient>
  </defs>
  <rect width="900" height="460" fill="url(#cab)"/>
  <rect x="610" y="0" width="290" height="460" fill="url(#steel)"/>
  <rect x="654" y="48" width="196" height="358" fill="#b5b4ad" opacity=".52"/>
  <circle cx="735" cy="116" r="21" fill="#1d2530"/>
  <circle cx="735" cy="116" r="9" fill="#d7deed"/>
  <rect x="720" y="210" width="128" height="70" rx="4" fill="#f8f8f1"/>
  <text x="735" y="256" font-family="Arial, sans-serif" font-size="43" font-weight="700" fill="#151925">P9</text>
  <path d="M214 166c50-52 128-48 174 14 39 52 48 125 35 206H200c-6-74-28-156 14-220z" fill="#1a1716"/>
  <circle cx="299" cy="126" r="58" fill="#d8a070"/>
  <path d="M250 126c16-64 102-76 140-24 17 24 17 56 7 80-50-44-99-54-147-56z" fill="#151515"/>
  <path d="M192 255h260l38 190H146z" fill="#171a1d"/>
  <path d="M177 292h294" stroke="#eb7b22" stroke-width="9"/>
  <path d="M178 310h294" stroke="#ffffff" stroke-width="4" opacity=".8"/>
  <path d="M440 234c44-58 89-96 134-113" stroke="#d8a070" stroke-width="35" stroke-linecap="round" fill="none"/>
  <rect width="900" height="460" fill="#000" opacity=".08"/>
</svg>
